# xmcd CD database file
#
# Track frame offsets:
#	150
#	16875
#	39898
#	72555
#
# Disc length: 1225 seconds
#
# Revision: 0
# Processed by: cddbd v1.5PL3 Copyright (c) Steve Scherf et al.
# Submitted via: CDex 1.51
#
DISCID=2a04c704
DTITLE=Dorlis - 24時間世界一周
DYEAR=2003
DGENRE=JPop
TTITLE0=24時間世界一周
TTITLE1=指先
TTITLE2=シェルドール
TTITLE3=PV
EXTD=YEAR: 2003
EXTT0=
EXTT1=
EXTT2=
EXTT3=
PLAYORDER=
